<mxfile host="app.diagrams.net" agent="Mozilla/5.0 (Windows NT 10.0; Win64; x64) AppleWebKit/537.36 (KHTML, like Gecko) Chrome/131.0.0.0 Safari/537.36" version="24.9.1">
  <diagram name="Página-1" id="N3gjR4tCd9T3QzvaEd7F">
    <mxGraphModel dx="2783" dy="2116" grid="1" gridSize="10" guides="1" tooltips="1" connect="1" arrows="1" fold="1" page="1" pageScale="1" pageWidth="827" pageHeight="1169" math="0" shadow="0">
      <root>
        <mxCell id="0" />
        <mxCell id="1" parent="0" />
        <mxCell id="cIbKu7zF9CGYVxdPYSEY-3" value="" style="edgeStyle=orthogonalEdgeStyle;rounded=0;orthogonalLoop=1;jettySize=auto;html=1;" edge="1" parent="1" source="cIbKu7zF9CGYVxdPYSEY-1">
          <mxGeometry relative="1" as="geometry">
            <mxPoint x="385" y="-385" as="targetPoint" />
          </mxGeometry>
        </mxCell>
        <mxCell id="cIbKu7zF9CGYVxdPYSEY-8" value="" style="edgeStyle=orthogonalEdgeStyle;rounded=0;orthogonalLoop=1;jettySize=auto;html=1;" edge="1" parent="1" source="cIbKu7zF9CGYVxdPYSEY-1" target="cIbKu7zF9CGYVxdPYSEY-7">
          <mxGeometry relative="1" as="geometry" />
        </mxCell>
        <mxCell id="cIbKu7zF9CGYVxdPYSEY-15" value="" style="edgeStyle=orthogonalEdgeStyle;rounded=0;orthogonalLoop=1;jettySize=auto;html=1;" edge="1" parent="1" source="cIbKu7zF9CGYVxdPYSEY-1" target="cIbKu7zF9CGYVxdPYSEY-14">
          <mxGeometry relative="1" as="geometry" />
        </mxCell>
        <mxCell id="cIbKu7zF9CGYVxdPYSEY-21" value="" style="edgeStyle=orthogonalEdgeStyle;rounded=0;orthogonalLoop=1;jettySize=auto;html=1;" edge="1" parent="1" source="cIbKu7zF9CGYVxdPYSEY-1" target="cIbKu7zF9CGYVxdPYSEY-20">
          <mxGeometry relative="1" as="geometry" />
        </mxCell>
        <mxCell id="cIbKu7zF9CGYVxdPYSEY-1" value="&lt;div&gt;Camada de Redes&lt;/div&gt;" style="rounded=1;whiteSpace=wrap;html=1;" vertex="1" parent="1">
          <mxGeometry x="290.01" y="-330" width="190" height="110" as="geometry" />
        </mxCell>
        <mxCell id="cIbKu7zF9CGYVxdPYSEY-6" value="" style="edgeStyle=orthogonalEdgeStyle;rounded=0;orthogonalLoop=1;jettySize=auto;html=1;" edge="1" parent="1" source="cIbKu7zF9CGYVxdPYSEY-4" target="cIbKu7zF9CGYVxdPYSEY-5">
          <mxGeometry relative="1" as="geometry" />
        </mxCell>
        <mxCell id="cIbKu7zF9CGYVxdPYSEY-4" value="Plano de Dados" style="rounded=1;whiteSpace=wrap;html=1;" vertex="1" parent="1">
          <mxGeometry x="325" y="-450" width="120" height="60" as="geometry" />
        </mxCell>
        <mxCell id="cIbKu7zF9CGYVxdPYSEY-5" value="&lt;span style=&quot;color: rgb(34, 34, 34); font-family: Arial, Helvetica, sans-serif; font-size: small; text-align: start; background-color: rgb(255, 255, 255);&quot;&gt;Envolve a estruturação de pacotes de dados, envolvendo detalhes como endereços de origem e destino, bem como informações de controle para garantir a entrega correta dos dados. O plano estabelece como os dados serão roteados, levando em consideração a topologia e as condições da rede, garantindo que as informações cheguem ao seu destino de forma rápida e eficiente.&lt;/span&gt;" style="whiteSpace=wrap;html=1;rounded=1;" vertex="1" parent="1">
          <mxGeometry x="276.25" y="-720" width="217.5" height="206" as="geometry" />
        </mxCell>
        <mxCell id="cIbKu7zF9CGYVxdPYSEY-10" value="" style="edgeStyle=orthogonalEdgeStyle;rounded=0;orthogonalLoop=1;jettySize=auto;html=1;" edge="1" parent="1" source="cIbKu7zF9CGYVxdPYSEY-7" target="cIbKu7zF9CGYVxdPYSEY-9">
          <mxGeometry relative="1" as="geometry" />
        </mxCell>
        <mxCell id="cIbKu7zF9CGYVxdPYSEY-7" value="IP" style="whiteSpace=wrap;html=1;rounded=1;" vertex="1" parent="1">
          <mxGeometry x="570" y="-305" width="120" height="60" as="geometry" />
        </mxCell>
        <mxCell id="cIbKu7zF9CGYVxdPYSEY-9" value="&lt;span style=&quot;color: rgb(34, 34, 34); font-family: Arial, Helvetica, sans-serif; font-size: small; text-align: start; background-color: rgb(255, 255, 255);&quot;&gt;P: O Protocolo de Internet (IP) é essencial para a comunicação na rede, e seu conceito pode ser dividido em três partes principais.&lt;/span&gt;" style="whiteSpace=wrap;html=1;rounded=1;" vertex="1" parent="1">
          <mxGeometry x="790" y="-332.5" width="155" height="115" as="geometry" />
        </mxCell>
        <mxCell id="cIbKu7zF9CGYVxdPYSEY-17" value="" style="edgeStyle=orthogonalEdgeStyle;rounded=0;orthogonalLoop=1;jettySize=auto;html=1;" edge="1" parent="1" source="cIbKu7zF9CGYVxdPYSEY-14" target="cIbKu7zF9CGYVxdPYSEY-16">
          <mxGeometry relative="1" as="geometry" />
        </mxCell>
        <mxCell id="cIbKu7zF9CGYVxdPYSEY-14" value="IPV6" style="whiteSpace=wrap;html=1;rounded=1;" vertex="1" parent="1">
          <mxGeometry x="325" y="-140" width="120" height="60" as="geometry" />
        </mxCell>
        <mxCell id="cIbKu7zF9CGYVxdPYSEY-16" value="&lt;span style=&quot;color: rgb(34, 34, 34); font-family: Arial, Helvetica, sans-serif; font-size: small; text-align: start; background-color: rgb(255, 255, 255);&quot;&gt;O IPv6 é a versão mais recente do protocolo IP, abordando as limitações de endereçamento do IPv4 e fornecendo uma quantidade quase ilimitada de endereços para dispositivos conectados.&lt;/span&gt;" style="whiteSpace=wrap;html=1;rounded=1;" vertex="1" parent="1">
          <mxGeometry x="280.63" y="-30" width="208.75" height="120" as="geometry" />
        </mxCell>
        <mxCell id="cIbKu7zF9CGYVxdPYSEY-23" value="" style="edgeStyle=orthogonalEdgeStyle;rounded=0;orthogonalLoop=1;jettySize=auto;html=1;" edge="1" parent="1" source="cIbKu7zF9CGYVxdPYSEY-20" target="cIbKu7zF9CGYVxdPYSEY-22">
          <mxGeometry relative="1" as="geometry" />
        </mxCell>
        <mxCell id="cIbKu7zF9CGYVxdPYSEY-20" value="Tradução de endereço de rede" style="whiteSpace=wrap;html=1;rounded=1;" vertex="1" parent="1">
          <mxGeometry x="80" y="-305" width="120" height="60" as="geometry" />
        </mxCell>
        <mxCell id="cIbKu7zF9CGYVxdPYSEY-26" value="" style="edgeStyle=orthogonalEdgeStyle;rounded=0;orthogonalLoop=1;jettySize=auto;html=1;" edge="1" parent="1" source="cIbKu7zF9CGYVxdPYSEY-22" target="cIbKu7zF9CGYVxdPYSEY-25">
          <mxGeometry relative="1" as="geometry" />
        </mxCell>
        <mxCell id="cIbKu7zF9CGYVxdPYSEY-28" value="" style="edgeStyle=orthogonalEdgeStyle;rounded=0;orthogonalLoop=1;jettySize=auto;html=1;" edge="1" parent="1" source="cIbKu7zF9CGYVxdPYSEY-22" target="cIbKu7zF9CGYVxdPYSEY-27">
          <mxGeometry relative="1" as="geometry" />
        </mxCell>
        <mxCell id="cIbKu7zF9CGYVxdPYSEY-30" value="" style="edgeStyle=orthogonalEdgeStyle;rounded=0;orthogonalLoop=1;jettySize=auto;html=1;" edge="1" parent="1" source="cIbKu7zF9CGYVxdPYSEY-22" target="cIbKu7zF9CGYVxdPYSEY-29">
          <mxGeometry relative="1" as="geometry" />
        </mxCell>
        <mxCell id="cIbKu7zF9CGYVxdPYSEY-22" value="A tradução de endereços de rede mapeia um intervalo de endereços IP em outro, mudando os dados do endereço de rede durante o seu trânsito." style="whiteSpace=wrap;html=1;rounded=1;" vertex="1" parent="1">
          <mxGeometry x="-140" y="-322.5" width="160" height="95" as="geometry" />
        </mxCell>
        <mxCell id="cIbKu7zF9CGYVxdPYSEY-25" value="NAT (Tradução de endereço de rede) Estático: Um endereço privado é traduzido em um público." style="whiteSpace=wrap;html=1;rounded=1;" vertex="1" parent="1">
          <mxGeometry x="-127.5" y="-155" width="135" height="75" as="geometry" />
        </mxCell>
        <mxCell id="cIbKu7zF9CGYVxdPYSEY-27" value="NAT (Tradução de endereço de rede) Dinâmico: Conjuntos de endereços públicos, que as máquinas que usam endereços privados podem usar." style="whiteSpace=wrap;html=1;rounded=1;" vertex="1" parent="1">
          <mxGeometry x="-370" y="-322.5" width="160" height="95" as="geometry" />
        </mxCell>
        <mxCell id="cIbKu7zF9CGYVxdPYSEY-29" value="NAT (Tradução de endereço de rede) Overload: Utiliza portas que indentificam paralelamente cada pedido das máquinas locais. Um exemplo é quando possuímos um endereço público e por ele fazemos sair várias máquinas (1:N)." style="whiteSpace=wrap;html=1;rounded=1;" vertex="1" parent="1">
          <mxGeometry x="-170" y="-500" width="220" height="100" as="geometry" />
        </mxCell>
      </root>
    </mxGraphModel>
  </diagram>
</mxfile>
